<svg width="16" height="16" viewBox="0 0 16 16" fill="none" xmlns="http://www.w3.org/2000/svg">
<path d="M6.40008 13.3333H9.60008C12.2667 13.3333 13.3334 12.2666 13.3334 9.59996V6.39996C13.3334 3.73329 12.2667 2.66663 9.60008 2.66663H6.40008C3.73341 2.66663 2.66675 3.73329 2.66675 6.39996V9.59996C2.66675 12.2666 3.73341 13.3333 6.40008 13.3333Z" stroke="#173D33" stroke-linecap="round" stroke-linejoin="round"/>
<path d="M7.00008 11.3333H9.00008C10.6667 11.3333 11.3334 10.6666 11.3334 8.99996V6.99996C11.3334 5.33329 10.6667 4.66663 9.00008 4.66663H7.00008C5.33341 4.66663 4.66675 5.33329 4.66675 6.99996V8.99996C4.66675 10.6666 5.33341 11.3333 7.00008 11.3333Z" stroke="#173D33" stroke-linecap="round" stroke-linejoin="round"/>
<path d="M5.34009 2.66671V1.33337" stroke="#173D33" stroke-linecap="round" stroke-linejoin="round"/>
<path d="M8 2.66671V1.33337" stroke="#173D33" stroke-linecap="round" stroke-linejoin="round"/>
<path d="M10.6667 2.66671V1.33337" stroke="#173D33" stroke-linecap="round" stroke-linejoin="round"/>
<path d="M13.3333 5.33337H14.6666" stroke="#173D33" stroke-linecap="round" stroke-linejoin="round"/>
<path d="M13.3333 8H14.6666" stroke="#173D33" stroke-linecap="round" stroke-linejoin="round"/>
<path d="M13.3333 10.6666H14.6666" stroke="#173D33" stroke-linecap="round" stroke-linejoin="round"/>
<path d="M10.6667 13.3334V14.6667" stroke="#173D33" stroke-linecap="round" stroke-linejoin="round"/>
<path d="M8.00659 13.3334V14.6667" stroke="#173D33" stroke-linecap="round" stroke-linejoin="round"/>
<path d="M5.34009 13.3334V14.6667" stroke="#173D33" stroke-linecap="round" stroke-linejoin="round"/>
<path d="M1.33325 5.33337H2.66659" stroke="#173D33" stroke-linecap="round" stroke-linejoin="round"/>
<path d="M1.33325 8H2.66659" stroke="#173D33" stroke-linecap="round" stroke-linejoin="round"/>
<path d="M1.33325 10.6666H2.66659" stroke="#173D33" stroke-linecap="round" stroke-linejoin="round"/>
<path d="M7.9999 6.46667L7.37323 7.56001C7.23323 7.80001 7.34656 8.00001 7.62656 8.00001H8.37323C8.65323 8.00001 8.76656 8.20001 8.62656 8.44001L7.9999 9.53334" stroke="#173D33" stroke-linecap="round" stroke-linejoin="round"/>
</svg>
